{
  "accessors": [
    {
      "bufferView": 0,
      "componentType": 5126,
      "count": 590946,
      "type": "VEC3",
      "max": [
        1.4473539590835571,
        1.6209850311279297,
        1.2936860322952271
      ],
      "min": [
        -1.0262689590454102,
        -1.5445599555969238,
        -1.0257929563522339
      ]
    },
    {
      "bufferView": 1,
      "componentType": 5126,
      "count": 590946,
      "type": "VEC3",
      "max": [
        0.99999439716339111,
        1.0,
        0.99998438358306885
      ],
      "min": [
        -0.99999165534973145,
        -0.99999713897705078,
        -0.999988317489624
      ]
    },
    {
      "bufferView": 2,
      "componentType": 5126,
      "count": 590946,
      "type": "VEC4",
      "max": [
        1.0,
        1.0,
        0.99999403953552246,
        1.0
      ],
      "min": [
        -1.0,
        -0.998790442943573,
        -0.99996101856231689,
        -1.0
      ]
    },
    {
      "bufferView": 3,
      "componentType": 5126,
      "count": 590946,
      "type": "VEC2",
      "max": [
        0.92010098695755,
        0.99800801277160645
      ],
      "min": [
        0.0018370000179857016,
        0.0019920000340789557
      ]
    },
    {
      "bufferView": 4,
      "componentType": 5125,
      "count": 720135,
      "type": "SCALAR",
      "max": [
        590945.0
      ],
      "min": [
        0.0
      ]
    }
  ],
  "asset": {
    "generator": "UnityGLTF (2018.3.9f1)",
    "version": "2.0"
  },
  "buffers": [
    {
      "uri": "Unity2Skfb.bin",
      "byteLength": 31245948
    }
  ],
  "bufferViews": [
    {
      "buffer": 0,
      "byteLength": 7091352
    },
    {
      "buffer": 0,
      "byteOffset": 7091352,
      "byteLength": 7091352
    },
    {
      "buffer": 0,
      "byteOffset": 14182704,
      "byteLength": 9455136
    },
    {
      "buffer": 0,
      "byteOffset": 23637840,
      "byteLength": 4727568
    },
    {
      "buffer": 0,
      "byteOffset": 28365408,
      "byteLength": 2880540
    }
  ],
  "images": [
    {
      "uri": "4992_1001_normal.png",
      "name": "1001_normal"
    },
    {
      "uri": "2828_1001_albedo.jpg",
      "name": "1001_albedo"
    },
    {
      "uri": "4996_1001_metallic.png",
      "name": "1001_metallic"
    }
  ],
  "materials": [
    {
      "pbrMetallicRoughness": {
        "baseColorTexture": {
          "index": 1
        },
        "metallicFactor": 0.0,
        "roughnessFactor": 0.5,
        "metallicRoughnessTexture": {
          "index": 2
        }
      },
      "normalTexture": {
        "index": 0
      },
      "name": "diorama material"
    }
  ],
  "meshes": [
    {
      "primitives": [
        {
          "attributes": {
            "POSITION": 0,
            "NORMAL": 1,
            "TANGENT": 2,
            "TEXCOORD_0": 3
          },
          "indices": 4,
          "material": 0
        }
      ],
      "name": "final_high_polly_high_detail_sculpt:Group43790"
    }
  ],
  "nodes": [
    {
      "rotation": [
        0.1830251,
        0.0,
        0.0,
        -0.9831082
      ],
      "translation": [
        6.18,
        7.28,
        30.64
      ],
      "name": "Main Camera"
    },
    {
      "children": [
        2
      ],
      "rotation": [
        0.01995978,
        -0.799993455,
        0.0513243228,
        -0.597476363
      ],
      "scale": [
        10.0000019,
        10.0,
        10.0000038
      ],
      "translation": [
        8.43,
        -4.16,
        -0.450000048
      ],
      "name": "final high polly high detail sculpt UVed"
    },
    {
      "mesh": 0,
      "rotation": [
        0.0,
        0.0,
        0.0,
        -1.0
      ],
      "name": "final_high_polly_high_detail_sculpt:Group43790"
    },
    {
      "rotation": [
        0.408217877,
        -0.234569684,
        -0.109381631,
        -0.8754261
      ],
      "scale": [
        1.0,
        1.0,
        0.99999994
      ],
      "translation": [
        0.0,
        3.0,
        0.0
      ],
      "name": "Directional Light"
    },
    {
      "rotation": [
        0.0,
        0.0,
        0.0,
        -1.0
      ],
      "translation": [
        -0.451,
        0.0,
        5.36
      ],
      "name": "Terrain"
    },
    {
      "rotation": [
        0.0,
        0.0,
        0.0,
        -1.0
      ],
      "translation": [
        0.84,
        -6.95,
        11.17
      ],
      "name": "Terrain (1)"
    }
  ],
  "samplers": [
    {
      "minFilter": 9729
    }
  ],
  "scene": 0,
  "scenes": [
    {
      "nodes": [
        0,
        1,
        3,
        4,
        5
      ],
      "name": "Unity2Skfb"
    }
  ],
  "textures": [
    {
      "sampler": 0,
      "source": 0,
      "name": "1001_normal"
    },
    {
      "sampler": 0,
      "source": 1,
      "name": "1001_albedo"
    },
    {
      "sampler": 0,
      "source": 2,
      "name": "1001_metallic"
    }
  ]
}